<?xml version="1.0" encoding="iso-8859-1"?>
<!-- Uploaded to: SVG Repo, www.svgrepo.com, Generator: SVG Repo Mixer Tools -->
<svg version="1.1" id="Layer_1" xmlns="http://www.w3.org/2000/svg" xmlns:xlink="http://www.w3.org/1999/xlink" 
	 viewBox="0 0 512 512" xml:space="preserve">
<path style="fill:#FC6F58;" d="M451.952,449.448H60.048C27.024,449.448,0,422.424,0,389.4V84.856C0,51.824,27.024,24.8,60.048,24.8
	h391.896C484.976,24.8,512,51.824,512,84.856V389.4C512,422.424,484.976,449.448,451.952,449.448z"/>
<path d="M512,119.312V84.856c0-33.032-27.024-60.048-60.048-60.048H60.048C27.024,24.808,0,51.824,0,84.856v34.456
	C0,119.312,512,119.312,512,119.312z"/>
<circle style="fill:#FC6F58;" cx="58.4" cy="72.08" r="13.424"/>
<circle style="fill:#49C3E8;" cx="96.64" cy="72.08" r="13.424"/>
<circle style="fill:#FFD160;" cx="134.904" cy="72.08" r="13.424"/>
<g>
	<rect x="429.392" y="68.296" style="fill:#FFFFFF;" width="30.4" height="6.824"/>
	<polygon style="fill:#FFFFFF;" points="450.88,92.208 445.728,87.728 459.384,72.056 445.728,56.392 450.88,51.912 468.448,72.056 
			"/>
	<path style="fill:#FFFFFF;" d="M379.264,93.424H208.336c-11.752,0-21.368-9.616-21.368-21.368l0,0
		c0-11.752,9.616-21.368,21.368-21.368h170.928c11.752,0,21.368,9.616,21.368,21.368l0,0
		C400.632,83.808,391.016,93.424,379.264,93.424z"/>
</g>
<path d="M212.664,82.288l-4.704-19.24h3.744l1.824,8.736c0.48,2.344,0.936,4.8,1.256,6.704h0.056c0.32-2.024,0.856-4.304,1.4-6.736
	l2.08-8.704H222l1.92,8.856c0.48,2.28,0.88,4.424,1.16,6.504h0.064c0.336-2.12,0.8-4.304,1.304-6.656l2-8.704h3.576l-5.176,19.24
	h-3.76l-2-9.056c-0.496-2.184-0.824-4.016-1.056-6.104h-0.064c-0.336,2.056-0.704,3.92-1.28,6.104l-2.224,9.056
	C216.464,82.288,212.664,82.288,212.664,82.288z"/>
<path d="M237.72,82.288l-4.704-19.24h3.744l1.824,8.736c0.48,2.344,0.936,4.8,1.256,6.704h0.056c0.32-2.024,0.856-4.304,1.4-6.736
	l2.08-8.704h3.68l1.92,8.856c0.48,2.28,0.88,4.424,1.16,6.504h0.064c0.336-2.12,0.8-4.304,1.304-6.656l2-8.704h3.576l-5.176,19.24
	h-3.76l-2-9.056c-0.496-2.184-0.824-4.016-1.056-6.104h-0.064c-0.336,2.056-0.704,3.92-1.28,6.104l-2.224,9.056
	C241.52,82.288,237.72,82.288,237.72,82.288z"/>
<path d="M262.776,82.288l-4.704-19.24h3.744l1.824,8.736c0.48,2.344,0.936,4.8,1.256,6.704h0.056c0.32-2.024,0.856-4.304,1.4-6.736
	l2.08-8.704h3.68l1.92,8.856c0.48,2.28,0.88,4.424,1.16,6.504h0.064c0.336-2.12,0.8-4.304,1.304-6.656l2-8.704h3.576l-5.176,19.24
	h-3.76l-2-9.056c-0.496-2.184-0.824-4.016-1.056-6.104h-0.064c-0.336,2.056-0.704,3.92-1.28,6.104l-2.224,9.056
	C266.576,82.288,262.776,82.288,262.776,82.288z"/>
<path d="M282.064,80.336c0-1.304,0.92-2.256,2.176-2.256c1.28,0,2.176,0.92,2.176,2.256c0,1.296-0.864,2.264-2.176,2.264
	C282.96,82.608,282.064,81.632,282.064,80.336z"/>
<path style="fill:#E9EDF1;" d="M424.632,264.056v205.92c0,9.472-7.752,17.224-17.224,17.224H103.144
	c-9.472,0-17.224-7.752-17.224-17.224v-205.92L424.632,264.056L424.632,264.056z"/>
<path style="fill:#32BEA6;" d="M85.92,264.056V210.28c0-9.472,7.752-17.224,17.224-17.224h304.264
	c9.472,0,17.224,7.752,17.224,17.224v53.776H85.92z"/>
<g>
	<path style="fill:#FFFFFF;" d="M239.264,247.008c-1.816,0.912-5.448,1.816-10.096,1.816c-10.784,0-18.888-6.808-18.888-19.344
		c0-11.976,8.104-20.08,19.968-20.08c4.76,0,7.768,1.024,9.08,1.696l-1.192,4.032c-1.872-0.904-4.544-1.584-7.72-1.584
		c-8.968,0-14.92,5.736-14.92,15.776c0,9.368,5.384,15.376,14.696,15.376c3.008,0,6.072-0.624,8.056-1.584L239.264,247.008z"/>
	<path style="fill:#FFFFFF;" d="M251.872,236.232l-3.976,12.024h-5.104l12.992-38.24h5.96l13.048,38.24h-5.272l-4.088-12.024
		H251.872z M264.408,232.376l-3.752-11.008c-0.856-2.488-1.416-4.76-1.984-6.976h-0.112c-0.576,2.272-1.2,4.592-1.936,6.928
		l-3.744,11.064h11.528V232.376z"/>
	<path style="fill:#FFFFFF;" d="M280.416,210.024h4.936v34.096h16.344v4.136h-21.272v-38.232H280.416z"/>
</g>
<rect x="138.68" y="172.6" width="15.056" height="52.544"/>
<rect x="355.44" y="172.6" width="15.056" height="52.544"/>
<path d="M252.144,325.288h-0.416l-23.4,12.64l-3.528-13.88l29.416-15.744h15.536v134.632h-17.608L252.144,325.288L252.144,325.288z"
	/>
</svg>